<mxfile host="app.diagrams.net" modified="2024-04-18T04:54:08.719Z" agent="Mozilla/5.0 (Windows NT 10.0; Win64; x64) AppleWebKit/537.36 (KHTML, like Gecko) Chrome/120.0.0.0 Safari/537.36" etag="3a9VlQpOyRJ5T5Ukiqt-" version="24.2.5" type="github">
  <diagram id="R2lEEEUBdFMjLlhIrx00" name="Page-1">
    <mxGraphModel dx="2737" dy="848" grid="1" gridSize="10" guides="1" tooltips="1" connect="1" arrows="1" fold="1" page="1" pageScale="1" pageWidth="850" pageHeight="1100" math="0" shadow="0" extFonts="Permanent Marker^https://fonts.googleapis.com/css?family=Permanent+Marker">
      <root>
        <mxCell id="0" />
        <mxCell id="1" parent="0" />
        <mxCell id="C-vyLk0tnHw3VtMMgP7b-12" value="" style="edgeStyle=entityRelationEdgeStyle;endArrow=ERzeroToMany;startArrow=ERone;endFill=1;startFill=0;" parent="1" target="C-vyLk0tnHw3VtMMgP7b-17" edge="1">
          <mxGeometry width="100" height="100" relative="1" as="geometry">
            <mxPoint x="700" y="165" as="sourcePoint" />
            <mxPoint x="460" y="205" as="targetPoint" />
          </mxGeometry>
        </mxCell>
        <mxCell id="o3p9_bI5ISa1uobTqOzB-19" style="edgeStyle=orthogonalEdgeStyle;rounded=0;orthogonalLoop=1;jettySize=auto;html=1;exitX=0;exitY=0.25;exitDx=0;exitDy=0;entryX=1;entryY=0.5;entryDx=0;entryDy=0;" edge="1" parent="1" source="o3p9_bI5ISa1uobTqOzB-1" target="o3p9_bI5ISa1uobTqOzB-18">
          <mxGeometry relative="1" as="geometry" />
        </mxCell>
        <mxCell id="o3p9_bI5ISa1uobTqOzB-22" style="edgeStyle=orthogonalEdgeStyle;rounded=0;orthogonalLoop=1;jettySize=auto;html=1;exitX=0;exitY=0.5;exitDx=0;exitDy=0;entryX=1;entryY=0.5;entryDx=0;entryDy=0;" edge="1" parent="1" source="o3p9_bI5ISa1uobTqOzB-1" target="o3p9_bI5ISa1uobTqOzB-23">
          <mxGeometry relative="1" as="geometry">
            <mxPoint x="-10" y="580" as="targetPoint" />
            <Array as="points">
              <mxPoint x="-40" y="525" />
              <mxPoint x="-40" y="545" />
            </Array>
          </mxGeometry>
        </mxCell>
        <mxCell id="o3p9_bI5ISa1uobTqOzB-24" style="edgeStyle=orthogonalEdgeStyle;rounded=0;orthogonalLoop=1;jettySize=auto;html=1;exitX=0;exitY=0.75;exitDx=0;exitDy=0;entryX=1;entryY=0.5;entryDx=0;entryDy=0;" edge="1" parent="1" source="o3p9_bI5ISa1uobTqOzB-1" target="o3p9_bI5ISa1uobTqOzB-25">
          <mxGeometry relative="1" as="geometry">
            <mxPoint x="30" y="630" as="targetPoint" />
            <Array as="points">
              <mxPoint x="-20" y="543" />
              <mxPoint x="-20" y="630" />
              <mxPoint x="-30" y="630" />
              <mxPoint x="-30" y="605" />
            </Array>
          </mxGeometry>
        </mxCell>
        <mxCell id="o3p9_bI5ISa1uobTqOzB-38" style="edgeStyle=orthogonalEdgeStyle;rounded=0;orthogonalLoop=1;jettySize=auto;html=1;exitX=1;exitY=0.5;exitDx=0;exitDy=0;entryX=0;entryY=0.5;entryDx=0;entryDy=0;" edge="1" parent="1" source="o3p9_bI5ISa1uobTqOzB-1" target="o3p9_bI5ISa1uobTqOzB-37">
          <mxGeometry relative="1" as="geometry" />
        </mxCell>
        <mxCell id="o3p9_bI5ISa1uobTqOzB-41" style="edgeStyle=orthogonalEdgeStyle;rounded=0;orthogonalLoop=1;jettySize=auto;html=1;exitX=0;exitY=1;exitDx=0;exitDy=0;entryX=1;entryY=0.5;entryDx=0;entryDy=0;" edge="1" parent="1" source="o3p9_bI5ISa1uobTqOzB-1" target="o3p9_bI5ISa1uobTqOzB-42">
          <mxGeometry relative="1" as="geometry">
            <mxPoint x="-40" y="690" as="targetPoint" />
            <Array as="points">
              <mxPoint y="560" />
              <mxPoint y="665" />
            </Array>
          </mxGeometry>
        </mxCell>
        <mxCell id="o3p9_bI5ISa1uobTqOzB-43" style="edgeStyle=orthogonalEdgeStyle;rounded=0;orthogonalLoop=1;jettySize=auto;html=1;exitX=0.25;exitY=1;exitDx=0;exitDy=0;entryX=0.5;entryY=0;entryDx=0;entryDy=0;" edge="1" parent="1" source="o3p9_bI5ISa1uobTqOzB-1" target="o3p9_bI5ISa1uobTqOzB-44">
          <mxGeometry relative="1" as="geometry">
            <mxPoint x="40" y="640" as="targetPoint" />
            <Array as="points">
              <mxPoint x="128" y="580" />
              <mxPoint x="30" y="580" />
              <mxPoint x="30" y="670" />
              <mxPoint x="25" y="670" />
            </Array>
          </mxGeometry>
        </mxCell>
        <mxCell id="o3p9_bI5ISa1uobTqOzB-54" style="edgeStyle=orthogonalEdgeStyle;rounded=0;orthogonalLoop=1;jettySize=auto;html=1;exitX=0.5;exitY=1;exitDx=0;exitDy=0;entryX=0.5;entryY=0;entryDx=0;entryDy=0;" edge="1" parent="1" source="o3p9_bI5ISa1uobTqOzB-1" target="o3p9_bI5ISa1uobTqOzB-53">
          <mxGeometry relative="1" as="geometry" />
        </mxCell>
        <mxCell id="o3p9_bI5ISa1uobTqOzB-1" value="Funcionario" style="rounded=0;whiteSpace=wrap;html=1;" vertex="1" parent="1">
          <mxGeometry x="90" y="490" width="150" height="70" as="geometry" />
        </mxCell>
        <mxCell id="o3p9_bI5ISa1uobTqOzB-36" style="edgeStyle=orthogonalEdgeStyle;rounded=0;orthogonalLoop=1;jettySize=auto;html=1;exitX=0.5;exitY=1;exitDx=0;exitDy=0;entryX=0;entryY=0;entryDx=0;entryDy=0;" edge="1" parent="1" source="o3p9_bI5ISa1uobTqOzB-2" target="o3p9_bI5ISa1uobTqOzB-1">
          <mxGeometry relative="1" as="geometry">
            <Array as="points">
              <mxPoint x="65" y="470" />
              <mxPoint x="90" y="470" />
            </Array>
          </mxGeometry>
        </mxCell>
        <mxCell id="o3p9_bI5ISa1uobTqOzB-2" value="Matricula" style="ellipse;whiteSpace=wrap;html=1;aspect=fixed;" vertex="1" parent="1">
          <mxGeometry x="40" y="330" width="50" height="50" as="geometry" />
        </mxCell>
        <mxCell id="o3p9_bI5ISa1uobTqOzB-7" style="edgeStyle=orthogonalEdgeStyle;rounded=0;orthogonalLoop=1;jettySize=auto;html=1;exitX=0.5;exitY=1;exitDx=0;exitDy=0;entryX=0.25;entryY=0;entryDx=0;entryDy=0;" edge="1" parent="1" source="o3p9_bI5ISa1uobTqOzB-6" target="o3p9_bI5ISa1uobTqOzB-1">
          <mxGeometry relative="1" as="geometry" />
        </mxCell>
        <mxCell id="o3p9_bI5ISa1uobTqOzB-6" value="Nome" style="ellipse;whiteSpace=wrap;html=1;aspect=fixed;" vertex="1" parent="1">
          <mxGeometry x="100" y="330" width="50" height="50" as="geometry" />
        </mxCell>
        <mxCell id="o3p9_bI5ISa1uobTqOzB-9" style="edgeStyle=orthogonalEdgeStyle;rounded=0;orthogonalLoop=1;jettySize=auto;html=1;exitX=0.5;exitY=1;exitDx=0;exitDy=0;entryX=0.5;entryY=0;entryDx=0;entryDy=0;" edge="1" parent="1" source="o3p9_bI5ISa1uobTqOzB-8" target="o3p9_bI5ISa1uobTqOzB-1">
          <mxGeometry relative="1" as="geometry" />
        </mxCell>
        <mxCell id="o3p9_bI5ISa1uobTqOzB-8" value="Data&lt;br&gt;Nasci" style="ellipse;whiteSpace=wrap;html=1;aspect=fixed;" vertex="1" parent="1">
          <mxGeometry x="140" y="380" width="50" height="50" as="geometry" />
        </mxCell>
        <mxCell id="o3p9_bI5ISa1uobTqOzB-13" style="edgeStyle=orthogonalEdgeStyle;rounded=0;orthogonalLoop=1;jettySize=auto;html=1;exitX=0.5;exitY=1;exitDx=0;exitDy=0;entryX=0.75;entryY=0;entryDx=0;entryDy=0;" edge="1" parent="1" source="o3p9_bI5ISa1uobTqOzB-12" target="o3p9_bI5ISa1uobTqOzB-1">
          <mxGeometry relative="1" as="geometry" />
        </mxCell>
        <mxCell id="o3p9_bI5ISa1uobTqOzB-12" value="Naciona&lt;br&gt;lidade" style="ellipse;whiteSpace=wrap;html=1;aspect=fixed;" vertex="1" parent="1">
          <mxGeometry x="180" y="330" width="50" height="50" as="geometry" />
        </mxCell>
        <mxCell id="o3p9_bI5ISa1uobTqOzB-17" style="edgeStyle=orthogonalEdgeStyle;rounded=0;orthogonalLoop=1;jettySize=auto;html=1;exitX=0;exitY=0.5;exitDx=0;exitDy=0;entryX=1;entryY=0;entryDx=0;entryDy=0;" edge="1" parent="1" source="o3p9_bI5ISa1uobTqOzB-16" target="o3p9_bI5ISa1uobTqOzB-1">
          <mxGeometry relative="1" as="geometry">
            <Array as="points">
              <mxPoint x="270" y="470" />
              <mxPoint x="240" y="470" />
            </Array>
          </mxGeometry>
        </mxCell>
        <mxCell id="o3p9_bI5ISa1uobTqOzB-16" value="Sexo" style="ellipse;whiteSpace=wrap;html=1;aspect=fixed;" vertex="1" parent="1">
          <mxGeometry x="250" y="330" width="50" height="50" as="geometry" />
        </mxCell>
        <mxCell id="o3p9_bI5ISa1uobTqOzB-18" value="Estado&lt;br&gt;Civil" style="ellipse;whiteSpace=wrap;html=1;aspect=fixed;" vertex="1" parent="1">
          <mxGeometry x="-110" y="460" width="50" height="50" as="geometry" />
        </mxCell>
        <mxCell id="o3p9_bI5ISa1uobTqOzB-21" style="edgeStyle=orthogonalEdgeStyle;rounded=0;orthogonalLoop=1;jettySize=auto;html=1;entryX=1;entryY=0.25;entryDx=0;entryDy=0;exitX=0.5;exitY=1;exitDx=0;exitDy=0;" edge="1" parent="1" source="o3p9_bI5ISa1uobTqOzB-20" target="o3p9_bI5ISa1uobTqOzB-1">
          <mxGeometry relative="1" as="geometry">
            <Array as="points">
              <mxPoint x="345" y="508" />
            </Array>
          </mxGeometry>
        </mxCell>
        <mxCell id="o3p9_bI5ISa1uobTqOzB-20" value="RG" style="ellipse;whiteSpace=wrap;html=1;aspect=fixed;" vertex="1" parent="1">
          <mxGeometry x="320" y="330" width="50" height="50" as="geometry" />
        </mxCell>
        <mxCell id="o3p9_bI5ISa1uobTqOzB-23" value="CIC" style="ellipse;whiteSpace=wrap;html=1;aspect=fixed;" vertex="1" parent="1">
          <mxGeometry x="-110" y="520" width="50" height="50" as="geometry" />
        </mxCell>
        <mxCell id="o3p9_bI5ISa1uobTqOzB-25" value="EndereÃ§o" style="ellipse;whiteSpace=wrap;html=1;aspect=fixed;" vertex="1" parent="1">
          <mxGeometry x="-110" y="580" width="50" height="50" as="geometry" />
        </mxCell>
        <mxCell id="o3p9_bI5ISa1uobTqOzB-31" value="" style="edgeStyle=orthogonalEdgeStyle;rounded=0;orthogonalLoop=1;jettySize=auto;html=1;" edge="1" parent="1" source="o3p9_bI5ISa1uobTqOzB-28" target="o3p9_bI5ISa1uobTqOzB-30">
          <mxGeometry relative="1" as="geometry" />
        </mxCell>
        <mxCell id="o3p9_bI5ISa1uobTqOzB-39" style="edgeStyle=orthogonalEdgeStyle;rounded=0;orthogonalLoop=1;jettySize=auto;html=1;exitX=0;exitY=0.5;exitDx=0;exitDy=0;entryX=1;entryY=0.5;entryDx=0;entryDy=0;" edge="1" parent="1" source="o3p9_bI5ISa1uobTqOzB-28" target="o3p9_bI5ISa1uobTqOzB-37">
          <mxGeometry relative="1" as="geometry" />
        </mxCell>
        <mxCell id="o3p9_bI5ISa1uobTqOzB-28" value="Cargo" style="rounded=0;whiteSpace=wrap;html=1;" vertex="1" parent="1">
          <mxGeometry x="515" y="495" width="120" height="60" as="geometry" />
        </mxCell>
        <mxCell id="o3p9_bI5ISa1uobTqOzB-29" value="N" style="text;html=1;align=center;verticalAlign=middle;resizable=0;points=[];autosize=1;strokeColor=none;fillColor=none;" vertex="1" parent="1">
          <mxGeometry x="485" y="470" width="30" height="30" as="geometry" />
        </mxCell>
        <mxCell id="o3p9_bI5ISa1uobTqOzB-30" value="Desc" style="ellipse;whiteSpace=wrap;html=1;rounded=0;" vertex="1" parent="1">
          <mxGeometry x="550" y="600" width="50" height="50" as="geometry" />
        </mxCell>
        <mxCell id="o3p9_bI5ISa1uobTqOzB-58" value="" style="edgeStyle=orthogonalEdgeStyle;rounded=0;orthogonalLoop=1;jettySize=auto;html=1;entryX=0.5;entryY=0;entryDx=0;entryDy=0;" edge="1" parent="1" source="o3p9_bI5ISa1uobTqOzB-37" target="o3p9_bI5ISa1uobTqOzB-59">
          <mxGeometry relative="1" as="geometry">
            <mxPoint x="405" y="670" as="targetPoint" />
          </mxGeometry>
        </mxCell>
        <mxCell id="o3p9_bI5ISa1uobTqOzB-61" value="" style="edgeStyle=orthogonalEdgeStyle;rounded=0;orthogonalLoop=1;jettySize=auto;html=1;entryX=0.5;entryY=1;entryDx=0;entryDy=0;" edge="1" parent="1" source="o3p9_bI5ISa1uobTqOzB-37" target="o3p9_bI5ISa1uobTqOzB-63">
          <mxGeometry relative="1" as="geometry">
            <mxPoint x="410" y="405" as="targetPoint" />
          </mxGeometry>
        </mxCell>
        <mxCell id="o3p9_bI5ISa1uobTqOzB-37" value="Ocupa" style="rhombus;whiteSpace=wrap;html=1;" vertex="1" parent="1">
          <mxGeometry x="380" y="485" width="80" height="80" as="geometry" />
        </mxCell>
        <mxCell id="o3p9_bI5ISa1uobTqOzB-42" value="Telefone" style="ellipse;whiteSpace=wrap;html=1;aspect=fixed;" vertex="1" parent="1">
          <mxGeometry x="-110" y="640" width="50" height="50" as="geometry" />
        </mxCell>
        <mxCell id="o3p9_bI5ISa1uobTqOzB-44" value="Data&lt;br&gt;AdmissÃ£o" style="ellipse;whiteSpace=wrap;html=1;aspect=fixed;" vertex="1" parent="1">
          <mxGeometry y="690" width="50" height="50" as="geometry" />
        </mxCell>
        <mxCell id="o3p9_bI5ISa1uobTqOzB-48" style="edgeStyle=orthogonalEdgeStyle;rounded=0;orthogonalLoop=1;jettySize=auto;html=1;exitX=0.25;exitY=1;exitDx=0;exitDy=0;entryX=0.5;entryY=0;entryDx=0;entryDy=0;" edge="1" parent="1" source="o3p9_bI5ISa1uobTqOzB-45" target="o3p9_bI5ISa1uobTqOzB-47">
          <mxGeometry relative="1" as="geometry" />
        </mxCell>
        <mxCell id="o3p9_bI5ISa1uobTqOzB-52" style="edgeStyle=orthogonalEdgeStyle;rounded=0;orthogonalLoop=1;jettySize=auto;html=1;exitX=0.75;exitY=1;exitDx=0;exitDy=0;" edge="1" parent="1" source="o3p9_bI5ISa1uobTqOzB-45" target="o3p9_bI5ISa1uobTqOzB-50">
          <mxGeometry relative="1" as="geometry" />
        </mxCell>
        <mxCell id="o3p9_bI5ISa1uobTqOzB-45" value="Dependente" style="rounded=0;whiteSpace=wrap;html=1;" vertex="1" parent="1">
          <mxGeometry x="105" y="860" width="120" height="60" as="geometry" />
        </mxCell>
        <mxCell id="o3p9_bI5ISa1uobTqOzB-47" value="Nome&lt;br&gt;Depen" style="ellipse;whiteSpace=wrap;html=1;aspect=fixed;" vertex="1" parent="1">
          <mxGeometry x="105" y="1010" width="50" height="50" as="geometry" />
        </mxCell>
        <mxCell id="o3p9_bI5ISa1uobTqOzB-50" value="Data&lt;br&gt;Nasci&lt;br&gt;Depen" style="ellipse;whiteSpace=wrap;html=1;aspect=fixed;" vertex="1" parent="1">
          <mxGeometry x="175" y="1010" width="50" height="50" as="geometry" />
        </mxCell>
        <mxCell id="o3p9_bI5ISa1uobTqOzB-55" style="edgeStyle=orthogonalEdgeStyle;rounded=0;orthogonalLoop=1;jettySize=auto;html=1;exitX=0.5;exitY=1;exitDx=0;exitDy=0;" edge="1" parent="1" source="o3p9_bI5ISa1uobTqOzB-53" target="o3p9_bI5ISa1uobTqOzB-45">
          <mxGeometry relative="1" as="geometry" />
        </mxCell>
        <mxCell id="o3p9_bI5ISa1uobTqOzB-53" value="Ã" style="rhombus;whiteSpace=wrap;html=1;" vertex="1" parent="1">
          <mxGeometry x="125" y="640" width="80" height="80" as="geometry" />
        </mxCell>
        <mxCell id="o3p9_bI5ISa1uobTqOzB-59" value="Data&lt;div&gt;InÃ­cio&lt;/div&gt;" style="ellipse;whiteSpace=wrap;html=1;aspect=fixed;" vertex="1" parent="1">
          <mxGeometry x="395" y="620" width="50" height="50" as="geometry" />
        </mxCell>
        <mxCell id="o3p9_bI5ISa1uobTqOzB-63" value="Data&lt;div&gt;Fim&lt;/div&gt;" style="ellipse;whiteSpace=wrap;html=1;aspect=fixed;" vertex="1" parent="1">
          <mxGeometry x="395" y="350" width="50" height="50" as="geometry" />
        </mxCell>
      </root>
    </mxGraphModel>
  </diagram>
</mxfile>
